<svg xmlns="http://www.w3.org/2000/svg" viewBox="0 0 640 480"><path fill="#D52B1E" d="M0 0h640v480H0z"/><path fill="#009B48" d="M0 0h53.1l133.4 100.1c73.4 55 133.4 100 133.5 100 .1 0 60.1-45 266.9-200.1H640v39.9l-133.4 100C433.2 194.9 373.2 240 373.2 240s60 45.1 266.8 200.2V480h-53.1L453.5 380C380.1 324.9 320.1 279.9 320 279.9c-.1 0-60.1 45-266.9 200.1H0v-39.8l133.4-100.1c73.4-55 133.4-100.1 133.4-100.1S206.8 194.9 0 39.9v-20z"/><path fill="#FFF" d="M288.1 0h63.8v208.1H640v63.8H351.9V480h-63.8V271.9H0v-63.8h288.1v-104z"/></svg>